<?xml version="1.0" standalone="no"?>
<!DOCTYPE svg PUBLIC "-//W3C//DTD SVG 20010904//EN"
 "http://www.w3.org/TR/2001/REC-SVG-20010904/DTD/svg10.dtd">
<svg version="1.0" xmlns="http://www.w3.org/2000/svg"
 width="300.000000pt" height="200.000000pt" viewBox="0 0 300.000000 200.000000"
 preserveAspectRatio="xMidYMid meet">
<metadata>
Created by potrace 1.10, written by Peter Selinger 2001-2011
</metadata>
<g transform="translate(0.000000,200.000000) scale(0.100000,-0.100000)"
fill="#00bdd6" stroke="none">
<path d="M618 1231 c-67 -68 -78 -84 -78 -113 0 -24 8 -42 25 -58 l24 -23 -24
-29 c-42 -50 -34 -74 53 -161 86 -85 116 -96 166 -56 l26 21 32 -27 c45 -38
70 -28 161 64 86 87 94 111 53 158 l-24 28 24 28 c41 48 33 70 -58 163 -68 70
-87 84 -113 84 -20 0 -40 -9 -54 -24 l-22 -24 -24 24 c-16 16 -36 24 -57 24
-27 0 -45 -12 -110 -79z m135 1 c15 -16 14 -20 -18 -45 -59 -47 -61 -61 -15
-110 l40 -44 -23 -21 -23 -22 -57 58 c-31 32 -57 62 -57 67 0 10 121 135 131
135 3 0 13 -8 22 -18z m204 -44 c67 -66 72 -78 48 -98 -14 -11 -22 -7 -58 28
-24 23 -50 42 -58 42 -8 0 -32 -18 -54 -40 l-39 -40 -22 21 -23 21 62 64 c33
35 65 64 71 64 6 0 39 -28 73 -62z m3 -170 l65 -70 -70 -63 c-65 -59 -71 -62
-88 -47 -17 15 -16 17 18 52 19 20 35 42 35 50 0 8 -19 33 -42 57 l-42 43 24
25 c13 14 26 24 29 24 3 -1 35 -33 71 -71z m-142 30 c9 -9 7 -14 -6 -24 -23
-17 -48 2 -31 22 14 17 22 17 37 2z m-148 -93 c19 -19 38 -35 44 -35 6 0 27
17 48 37 l38 37 25 -24 25 -24 -57 -58 c-32 -32 -62 -58 -67 -58 -14 0 -126
112 -126 125 0 12 20 35 30 35 3 0 21 -16 40 -35z m160 -104 c0 -12 -20 -25
-27 -18 -7 7 6 27 18 27 5 0 9 -4 9 -9z"/>
<path d="M1577 1220 c-44 -13 -57 -29 -57 -70 0 -46 11 -56 79 -72 56 -13 71
-29 51 -53 -18 -21 -56 -19 -80 5 -24 24 -60 27 -60 5 0 -8 9 -24 20 -35 58
-58 180 -27 180 46 0 35 -30 60 -88 74 -48 11 -69 30 -56 51 9 15 74 11 80 -6
4 -8 17 -15 30 -15 15 0 24 6 24 15 0 19 -35 55 -54 55 -8 0 -20 2 -28 4 -7 2
-26 0 -41 -4z"/>
<path d="M1802 1218 c-33 -9 -62 -41 -62 -71 0 -29 43 -64 88 -72 53 -9 74
-31 47 -51 -26 -19 -52 -17 -75 6 -26 26 -60 26 -60 2 0 -30 36 -55 88 -60 41
-3 53 0 76 20 53 45 28 113 -45 124 -49 8 -74 26 -66 48 8 21 75 22 83 1 6
-16 54 -21 54 -6 0 4 -9 20 -20 33 -22 29 -61 38 -108 26z"/>
<path d="M1269 1192 c-62 -56 -48 -171 26 -206 64 -31 143 -9 172 47 25 49 13
124 -26 159 -26 23 -40 28 -86 28 -46 0 -60 -5 -86 -28z m135 -33 c44 -35 33
-119 -19 -139 -30 -11 -82 5 -95 30 -18 33 -11 79 15 105 30 30 64 32 99 4z"/>
<path d="M2012 1204 c-74 -52 -68 -180 12 -218 93 -44 186 11 186 109 0 78
-47 125 -125 125 -30 0 -60 -6 -73 -16z m122 -45 c46 -36 33 -118 -22 -137
-34 -12 -85 6 -96 33 -13 35 -6 76 19 100 30 30 64 32 99 4z"/>
<path d="M2250 1095 l0 -125 85 0 c84 0 85 0 85 25 0 24 -3 25 -60 25 l-60 0
0 100 c0 100 0 100 -25 100 l-25 0 0 -125z"/>
<path d="M1246 844 c-16 -48 -13 -74 5 -41 12 21 38 22 45 2 4 -8 10 -15 15
-15 12 0 -23 92 -37 97 -7 2 -19 -17 -28 -43z m33 -13 c-15 -5 -22 6 -14 19 6
9 10 9 16 -1 5 -8 4 -15 -2 -18z"/>
<path d="M1620 840 c0 -27 5 -50 10 -50 6 0 10 12 10 28 l1 27 13 -24 13 -24
17 24 16 23 0 -27 c0 -15 5 -27 10 -27 6 0 10 23 10 50 0 57 -15 65 -34 18
l-14 -32 -16 32 c-24 46 -36 39 -36 -18z"/>
<path d="M1538 869 c-7 -22 5 -79 17 -79 11 0 11 8 6 83 -1 11 -19 8 -23 -4z"/>
<path d="M2388 868 c-9 -27 7 -73 27 -76 16 -3 18 -1 8 9 -16 16 -17 49 -2 49
6 0 4 7 -5 15 -18 18 -23 19 -28 3z"/>
<path d="M1325 851 c-3 -5 -1 -12 4 -15 5 -3 7 -15 4 -26 -4 -15 0 -20 15 -20
32 0 37 21 11 42 l-24 19 24 -6 c16 -5 21 -4 17 4 -9 13 -43 15 -51 2z"/>
<path d="M1397 853 c-3 -5 -4 -19 -3 -33 1 -27 31 -39 50 -20 8 8 5 16 -14 31
l-25 20 24 -6 c16 -5 21 -4 17 4 -8 12 -42 15 -49 4z"/>
<path d="M1464 846 c-15 -39 23 -74 50 -46 8 9 6 11 -11 6 -12 -4 -24 -2 -28
4 -4 6 4 10 20 10 20 0 26 4 23 18 -4 22 -46 29 -54 8z m41 -6 c3 -5 -3 -10
-15 -10 -12 0 -18 5 -15 10 3 6 10 10 15 10 5 0 12 -4 15 -10z"/>
<path d="M1734 849 c-5 -9 -2 -10 10 -6 10 4 23 4 29 0 7 -4 2 -9 -13 -13 -34
-8 -32 -34 3 -38 27 -3 28 -1 25 30 -2 25 -8 34 -25 36 -11 2 -25 -2 -29 -9z"/>
<path d="M1810 826 c0 -20 4 -36 8 -36 4 0 8 12 7 27 0 14 6 28 13 30 8 3 12
-6 12 -26 0 -17 5 -31 11 -31 6 0 9 14 7 33 -2 27 -8 33 -30 35 -26 3 -28 1
-28 -32z"/>
<path d="M1884 848 c-5 -8 -2 -9 10 -5 10 4 23 4 29 0 7 -4 2 -9 -13 -13 -34
-8 -32 -34 3 -38 25 -3 27 -1 27 32 0 31 -3 36 -24 36 -14 0 -28 -5 -32 -12z"/>
<path d="M1964 846 c-11 -27 1 -51 24 -50 12 0 22 -4 22 -9 0 -5 -11 -7 -25
-4 -16 3 -24 0 -22 -7 2 -6 15 -11 28 -11 22 0 24 5 27 48 3 45 2 47 -23 47
-14 0 -28 -6 -31 -14z m44 -19 c2 -10 -3 -17 -12 -17 -18 0 -29 16 -21 31 9
14 29 6 33 -14z"/>
<path d="M2044 846 c-15 -39 23 -74 50 -46 8 9 6 11 -11 6 -12 -4 -24 -2 -28
4 -4 6 4 10 20 10 20 0 26 4 23 18 -4 22 -46 29 -54 8z m41 -6 c3 -5 -3 -10
-15 -10 -12 0 -18 5 -15 10 3 6 10 10 15 10 5 0 12 -4 15 -10z"/>
<path d="M2121 823 c1 -36 2 -36 8 -9 9 41 31 46 31 7 0 -17 5 -31 10 -31 6 0
10 14 10 30 0 17 5 30 10 30 6 0 10 -13 10 -30 0 -16 5 -30 11 -30 6 0 9 14 7
33 -3 31 -5 32 -50 35 l-48 2 1 -37z"/>
<path d="M2235 840 c-12 -37 41 -71 61 -39 4 7 0 9 -14 5 -11 -4 -23 -2 -27 4
-4 6 4 10 20 10 36 0 30 34 -7 38 -19 2 -28 -2 -33 -18z m45 0 c0 -5 -7 -10
-15 -10 -8 0 -15 5 -15 10 0 6 7 10 15 10 8 0 15 -4 15 -10z"/>
<path d="M2310 825 c0 -19 5 -35 10 -35 6 0 10 14 10 31 0 38 24 35 28 -4 2
-15 7 -27 11 -27 4 0 5 16 3 35 -4 31 -8 35 -33 35 -26 0 -29 -3 -29 -35z"/>
</g>
</svg>
